<mxfile host="app.diagrams.net" modified="2023-12-15T03:07:16.744Z" agent="Mozilla/5.0 (Windows NT 10.0; Win64; x64) AppleWebKit/537.36 (KHTML, like Gecko) Chrome/120.0.0.0 Safari/537.36" etag="W8lAax1vxtG0YaneBqV6" version="22.1.9" type="github" pages="2">
  <diagram id="QHznE0dWECz1wWXKp1KE" name="Page-1">
    <mxGraphModel dx="2315" dy="870" grid="1" gridSize="10" guides="1" tooltips="1" connect="1" arrows="1" fold="1" page="1" pageScale="1" pageWidth="827" pageHeight="1169" math="0" shadow="0">
      <root>
        <mxCell id="0" />
        <mxCell id="1" parent="0" />
        <mxCell id="US4r3jJXT_8FxYi47NpS-1" style="edgeStyle=orthogonalEdgeStyle;rounded=1;orthogonalLoop=1;jettySize=auto;html=1;entryX=0.5;entryY=0;entryDx=0;entryDy=0;exitX=1;exitY=0.5;exitDx=0;exitDy=0;fontFamily=Helvetica;strokeColor=#696773;strokeWidth=2;dashed=1;" parent="1" source="US4r3jJXT_8FxYi47NpS-3" target="US4r3jJXT_8FxYi47NpS-10" edge="1">
          <mxGeometry relative="1" as="geometry">
            <mxPoint x="554" y="545" as="sourcePoint" />
            <mxPoint x="404" y="643" as="targetPoint" />
            <Array as="points">
              <mxPoint x="600" y="445" />
              <mxPoint x="600" y="800" />
              <mxPoint x="566" y="800" />
            </Array>
          </mxGeometry>
        </mxCell>
        <mxCell id="US4r3jJXT_8FxYi47NpS-2" style="edgeStyle=orthogonalEdgeStyle;rounded=1;orthogonalLoop=1;jettySize=auto;html=1;exitX=0;exitY=0.5;exitDx=0;exitDy=0;entryX=0.344;entryY=0.033;entryDx=0;entryDy=0;fontFamily=Helvetica;strokeColor=#696773;strokeWidth=2;dashed=1;entryPerimeter=0;" parent="1" source="US4r3jJXT_8FxYi47NpS-3" target="US4r3jJXT_8FxYi47NpS-42" edge="1">
          <mxGeometry relative="1" as="geometry">
            <mxPoint x="423.5" y="620" as="targetPoint" />
            <mxPoint x="254" y="387.5" as="sourcePoint" />
          </mxGeometry>
        </mxCell>
        <mxCell id="US4r3jJXT_8FxYi47NpS-3" value="clflush" style="rounded=1;whiteSpace=wrap;html=1;shadow=1;glass=0;comic=0;gradientColor=none;fontFamily=Comic Sans MS;fontStyle=1;fillColor=#F38181;strokeWidth=4;strokeColor=none;" parent="1" vertex="1">
          <mxGeometry x="470" y="430" width="90" height="30" as="geometry" />
        </mxCell>
        <mxCell id="US4r3jJXT_8FxYi47NpS-4" value="Flush + Flush" style="rounded=1;whiteSpace=wrap;html=1;fillColor=#79d9ce;strokeColor=none;shadow=1;glass=0;comic=0;gradientColor=none;fontFamily=Comic Sans MS;fontStyle=1" parent="1" vertex="1">
          <mxGeometry x="629" y="870" width="110" height="30" as="geometry" />
        </mxCell>
        <mxCell id="US4r3jJXT_8FxYi47NpS-5" value="Evict + Reload" style="rounded=1;whiteSpace=wrap;html=1;fillColor=#79d9ce;strokeColor=none;shadow=1;glass=0;comic=0;gradientColor=none;fontFamily=Comic Sans MS;fontStyle=1" parent="1" vertex="1">
          <mxGeometry x="380" y="870" width="110" height="30" as="geometry" />
        </mxCell>
        <mxCell id="US4r3jJXT_8FxYi47NpS-6" value="Prime + Probe" style="rounded=1;whiteSpace=wrap;html=1;fillColor=#79d9ce;strokeColor=none;shadow=1;glass=0;comic=0;gradientColor=none;fontFamily=Comic Sans MS;fontStyle=1" parent="1" vertex="1">
          <mxGeometry x="225" y="870" width="110" height="30" as="geometry" />
        </mxCell>
        <mxCell id="US4r3jJXT_8FxYi47NpS-7" style="edgeStyle=orthogonalEdgeStyle;rounded=1;orthogonalLoop=1;jettySize=auto;html=1;exitX=1;exitY=0.5;exitDx=0;exitDy=0;fontFamily=Helvetica;dashed=1;strokeColor=#696773;strokeWidth=2;" parent="1" source="US4r3jJXT_8FxYi47NpS-8" target="US4r3jJXT_8FxYi47NpS-9" edge="1">
          <mxGeometry relative="1" as="geometry">
            <mxPoint x="585" y="455" as="targetPoint" />
          </mxGeometry>
        </mxCell>
        <mxCell id="US4r3jJXT_8FxYi47NpS-8" value="cache coherence" style="rounded=1;whiteSpace=wrap;html=1;strokeColor=none;shadow=1;glass=0;comic=0;gradientColor=none;fontFamily=Comic Sans MS;fillColor=#81b29a;fontStyle=1" parent="1" vertex="1">
          <mxGeometry x="550" y="340" width="90" height="30" as="geometry" />
        </mxCell>
        <mxCell id="US4r3jJXT_8FxYi47NpS-9" value="coherence attack" style="rounded=1;whiteSpace=wrap;html=1;fillColor=#79d9ce;strokeColor=none;shadow=1;glass=0;comic=0;gradientColor=none;fontFamily=Comic Sans MS;fontStyle=1" parent="1" vertex="1">
          <mxGeometry x="760" y="870" width="110" height="30" as="geometry" />
        </mxCell>
        <mxCell id="US4r3jJXT_8FxYi47NpS-10" value="Flush + Reload" style="rounded=1;whiteSpace=wrap;html=1;fillColor=#79d9ce;strokeColor=none;shadow=1;glass=0;comic=0;gradientColor=none;fontFamily=Comic Sans MS;fontStyle=1" parent="1" vertex="1">
          <mxGeometry x="511" y="870" width="110" height="30" as="geometry" />
        </mxCell>
        <mxCell id="US4r3jJXT_8FxYi47NpS-11" style="edgeStyle=orthogonalEdgeStyle;rounded=1;orthogonalLoop=1;jettySize=auto;html=1;entryX=0.5;entryY=0;entryDx=0;entryDy=0;fontFamily=Helvetica;dashed=1;strokeColor=#696773;strokeWidth=2;" parent="1" source="US4r3jJXT_8FxYi47NpS-16" target="US4r3jJXT_8FxYi47NpS-8" edge="1">
          <mxGeometry relative="1" as="geometry">
            <mxPoint x="-155" y="620" as="targetPoint" />
            <mxPoint x="315" y="555" as="sourcePoint" />
          </mxGeometry>
        </mxCell>
        <mxCell id="US4r3jJXT_8FxYi47NpS-12" style="edgeStyle=orthogonalEdgeStyle;rounded=1;orthogonalLoop=1;jettySize=auto;html=1;exitX=1;exitY=0.5;exitDx=0;exitDy=0;fontFamily=Helvetica;dashed=1;strokeColor=#696773;strokeWidth=2;entryX=0.5;entryY=0;entryDx=0;entryDy=0;" parent="1" source="US4r3jJXT_8FxYi47NpS-14" target="US4r3jJXT_8FxYi47NpS-3" edge="1">
          <mxGeometry relative="1" as="geometry">
            <Array as="points">
              <mxPoint x="440" y="355" />
              <mxPoint x="440" y="400" />
              <mxPoint x="515" y="400" />
            </Array>
            <mxPoint x="500" y="430" as="targetPoint" />
          </mxGeometry>
        </mxCell>
        <mxCell id="US4r3jJXT_8FxYi47NpS-13" style="edgeStyle=orthogonalEdgeStyle;rounded=1;orthogonalLoop=1;jettySize=auto;html=1;exitX=0;exitY=0.5;exitDx=0;exitDy=0;entryX=0.25;entryY=0;entryDx=0;entryDy=0;fontFamily=Helvetica;dashed=1;strokeColor=#696773;strokeWidth=2;" parent="1" source="US4r3jJXT_8FxYi47NpS-14" target="US4r3jJXT_8FxYi47NpS-25" edge="1">
          <mxGeometry relative="1" as="geometry">
            <mxPoint x="-120" y="360" as="targetPoint" />
          </mxGeometry>
        </mxCell>
        <mxCell id="US4r3jJXT_8FxYi47NpS-14" value="shared memory" style="rounded=1;whiteSpace=wrap;html=1;strokeColor=none;shadow=1;glass=0;comic=0;gradientColor=none;fontFamily=Comic Sans MS;fillColor=#e07a5f;fontStyle=1" parent="1" vertex="1">
          <mxGeometry x="270" y="340" width="90" height="30" as="geometry" />
        </mxCell>
        <mxCell id="US4r3jJXT_8FxYi47NpS-15" style="edgeStyle=orthogonalEdgeStyle;rounded=1;orthogonalLoop=1;jettySize=auto;html=1;exitX=0;exitY=0.5;exitDx=0;exitDy=0;entryX=0.25;entryY=0;entryDx=0;entryDy=0;fontFamily=Helvetica;dashed=1;strokeColor=#696773;strokeWidth=2;" parent="1" source="US4r3jJXT_8FxYi47NpS-16" target="US4r3jJXT_8FxYi47NpS-14" edge="1">
          <mxGeometry relative="1" as="geometry" />
        </mxCell>
        <mxCell id="US4r3jJXT_8FxYi47NpS-16" value="&lt;font color=&quot;#000000&quot;&gt;Multiprocesor&lt;/font&gt;" style="rounded=1;whiteSpace=wrap;html=1;strokeColor=none;shadow=1;glass=0;comic=0;gradientColor=none;fontFamily=Comic Sans MS;fontColor=#FFFFFF;fontStyle=1;fillColor=#77AAC2;" parent="1" vertex="1">
          <mxGeometry x="255" y="250" width="120" height="30" as="geometry" />
        </mxCell>
        <mxCell id="US4r3jJXT_8FxYi47NpS-17" style="edgeStyle=orthogonalEdgeStyle;rounded=1;orthogonalLoop=1;jettySize=auto;html=1;exitX=1;exitY=0.5;exitDx=0;exitDy=0;entryX=0.75;entryY=0;entryDx=0;entryDy=0;fontFamily=Helvetica;dashed=1;strokeColor=#696773;strokeWidth=2;" parent="1" source="US4r3jJXT_8FxYi47NpS-16" target="US4r3jJXT_8FxYi47NpS-14" edge="1">
          <mxGeometry relative="1" as="geometry">
            <mxPoint x="265" y="275" as="sourcePoint" />
            <mxPoint x="325" y="350" as="targetPoint" />
          </mxGeometry>
        </mxCell>
        <mxCell id="US4r3jJXT_8FxYi47NpS-18" style="edgeStyle=orthogonalEdgeStyle;rounded=1;orthogonalLoop=1;jettySize=auto;html=1;exitX=1;exitY=0.5;exitDx=0;exitDy=0;entryX=0.5;entryY=0;entryDx=0;entryDy=0;fontFamily=Helvetica;strokeColor=#696773;strokeWidth=2;dashed=1;" parent="1" source="US4r3jJXT_8FxYi47NpS-3" target="US4r3jJXT_8FxYi47NpS-4" edge="1">
          <mxGeometry relative="1" as="geometry">
            <mxPoint x="566" y="545" as="sourcePoint" />
            <mxPoint x="684" y="605" as="targetPoint" />
            <Array as="points">
              <mxPoint x="684" y="445" />
            </Array>
          </mxGeometry>
        </mxCell>
        <mxCell id="US4r3jJXT_8FxYi47NpS-19" style="edgeStyle=orthogonalEdgeStyle;rounded=1;orthogonalLoop=1;jettySize=auto;html=1;exitX=1;exitY=0.5;exitDx=0;exitDy=0;fontColor=#000000;entryX=0.5;entryY=0;entryDx=0;entryDy=0;fontFamily=Helvetica;strokeColor=#696773;strokeWidth=2;dashed=1;" parent="1" source="US4r3jJXT_8FxYi47NpS-20" target="US4r3jJXT_8FxYi47NpS-21" edge="1">
          <mxGeometry relative="1" as="geometry">
            <mxPoint x="-20" y="680" as="targetPoint" />
            <Array as="points">
              <mxPoint x="40" y="585" />
              <mxPoint x="40" y="660" />
              <mxPoint x="-25" y="660" />
            </Array>
          </mxGeometry>
        </mxCell>
        <mxCell id="US4r3jJXT_8FxYi47NpS-20" value="&lt;font color=&quot;#000000&quot;&gt;&lt;span&gt;cache bank&lt;/span&gt;&lt;/font&gt;" style="rounded=1;whiteSpace=wrap;html=1;shadow=1;glass=0;comic=0;gradientColor=none;fontFamily=Comic Sans MS;fontColor=#FFFFFF;fillColor=#eaffd0;fontStyle=1;strokeWidth=4;strokeColor=none;" parent="1" vertex="1">
          <mxGeometry x="-70" y="570" width="90" height="30" as="geometry" />
        </mxCell>
        <mxCell id="US4r3jJXT_8FxYi47NpS-21" value="CacheBleed" style="rounded=1;whiteSpace=wrap;html=1;fillColor=#79d9ce;strokeColor=none;shadow=1;glass=0;comic=0;gradientColor=none;fontFamily=Comic Sans MS;fontStyle=1" parent="1" vertex="1">
          <mxGeometry x="-80" y="870" width="110" height="30" as="geometry" />
        </mxCell>
        <mxCell id="US4r3jJXT_8FxYi47NpS-22" style="edgeStyle=orthogonalEdgeStyle;rounded=1;orthogonalLoop=1;jettySize=auto;html=1;exitX=1;exitY=0.5;exitDx=0;exitDy=0;entryX=0.75;entryY=0;entryDx=0;entryDy=0;fontFamily=Helvetica;dashed=1;strokeColor=#696773;strokeWidth=2;" parent="1" source="US4r3jJXT_8FxYi47NpS-14" target="US4r3jJXT_8FxYi47NpS-25" edge="1">
          <mxGeometry relative="1" as="geometry">
            <mxPoint x="370" y="365" as="sourcePoint" />
            <mxPoint y="430" as="targetPoint" />
            <Array as="points">
              <mxPoint x="440" y="355" />
              <mxPoint x="440" y="400" />
              <mxPoint x="138" y="400" />
            </Array>
          </mxGeometry>
        </mxCell>
        <mxCell id="US4r3jJXT_8FxYi47NpS-23" style="edgeStyle=orthogonalEdgeStyle;rounded=1;orthogonalLoop=1;jettySize=auto;html=1;exitX=1;exitY=0.5;exitDx=0;exitDy=0;fontColor=#000000;fontFamily=Helvetica;dashed=1;strokeColor=#696773;strokeWidth=2;entryX=0.75;entryY=0;entryDx=0;entryDy=0;" parent="1" source="US4r3jJXT_8FxYi47NpS-25" target="US4r3jJXT_8FxYi47NpS-27" edge="1">
          <mxGeometry relative="1" as="geometry">
            <mxPoint x="120" y="520" as="targetPoint" />
            <Array as="points">
              <mxPoint x="180" y="445" />
              <mxPoint x="180" y="520" />
              <mxPoint x="138" y="520" />
            </Array>
          </mxGeometry>
        </mxCell>
        <mxCell id="US4r3jJXT_8FxYi47NpS-24" style="edgeStyle=orthogonalEdgeStyle;rounded=1;orthogonalLoop=1;jettySize=auto;html=1;exitX=0;exitY=0.5;exitDx=0;exitDy=0;fontColor=#000000;fontFamily=Helvetica;dashed=1;strokeColor=#696773;strokeWidth=2;entryX=0.25;entryY=0;entryDx=0;entryDy=0;" parent="1" source="US4r3jJXT_8FxYi47NpS-25" target="US4r3jJXT_8FxYi47NpS-27" edge="1">
          <mxGeometry relative="1" as="geometry">
            <Array as="points">
              <mxPoint x="50" y="445" />
              <mxPoint x="50" y="520" />
              <mxPoint x="93" y="520" />
            </Array>
          </mxGeometry>
        </mxCell>
        <mxCell id="US4r3jJXT_8FxYi47NpS-25" value="&lt;font color=&quot;#000000&quot;&gt;&lt;b&gt;cache level&lt;/b&gt;&lt;/font&gt;" style="rounded=1;whiteSpace=wrap;html=1;fillColor=#eff1f3;strokeColor=none;shadow=1;glass=0;comic=0;gradientColor=none;fontFamily=Comic Sans MS;fontColor=#FFFFFF;" parent="1" vertex="1">
          <mxGeometry x="70" y="430" width="90" height="30" as="geometry" />
        </mxCell>
        <mxCell id="US4r3jJXT_8FxYi47NpS-26" style="edgeStyle=orthogonalEdgeStyle;rounded=1;orthogonalLoop=1;jettySize=auto;html=1;exitX=1;exitY=0.5;exitDx=0;exitDy=0;fontColor=#000000;entryX=0.5;entryY=0;entryDx=0;entryDy=0;fontFamily=Helvetica;dashed=1;strokeColor=#696773;strokeWidth=2;" parent="1" source="US4r3jJXT_8FxYi47NpS-27" target="US4r3jJXT_8FxYi47NpS-28" edge="1">
          <mxGeometry relative="1" as="geometry">
            <mxPoint x="145" y="690" as="targetPoint" />
            <Array as="points">
              <mxPoint x="190" y="585" />
              <mxPoint x="190" y="660" />
              <mxPoint x="110" y="660" />
            </Array>
          </mxGeometry>
        </mxCell>
        <mxCell id="US4r3jJXT_8FxYi47NpS-27" value="&lt;font color=&quot;#000000&quot;&gt;&lt;b style=&quot;background-color: rgb(244 , 241 , 222)&quot;&gt;Replacement Policy&lt;/b&gt;&lt;/font&gt;" style="rounded=1;whiteSpace=wrap;html=1;strokeColor=none;shadow=1;glass=0;comic=0;gradientColor=none;fontFamily=Comic Sans MS;fontColor=#FFFFFF;fillColor=#F4F1DE;" parent="1" vertex="1">
          <mxGeometry x="70" y="570" width="90" height="30" as="geometry" />
        </mxCell>
        <mxCell id="US4r3jJXT_8FxYi47NpS-28" value="Replacement Attack" style="rounded=1;whiteSpace=wrap;html=1;fillColor=#79d9ce;strokeColor=none;shadow=1;glass=0;comic=0;gradientColor=none;fontFamily=Comic Sans MS;fontStyle=1" parent="1" vertex="1">
          <mxGeometry x="55" y="870" width="110" height="30" as="geometry" />
        </mxCell>
        <mxCell id="US4r3jJXT_8FxYi47NpS-29" value="L1" style="text;html=1;align=center;verticalAlign=middle;resizable=0;points=[];autosize=1;strokeColor=none;fillColor=none;fontStyle=1;fontFamily=Comic Sans MS;fontColor=#FF0000;" parent="1" vertex="1">
          <mxGeometry x="31" y="423" width="24" height="18" as="geometry" />
        </mxCell>
        <mxCell id="US4r3jJXT_8FxYi47NpS-30" value="LLC" style="text;html=1;align=center;verticalAlign=middle;resizable=0;points=[];autosize=1;strokeColor=none;fillColor=none;fontFamily=Comic Sans MS;fontStyle=1;fontColor=#FF0000;" parent="1" vertex="1">
          <mxGeometry x="175" y="421" width="31" height="18" as="geometry" />
        </mxCell>
        <mxCell id="US4r3jJXT_8FxYi47NpS-31" value="L1 cache bank" style="text;html=1;align=center;verticalAlign=middle;resizable=0;points=[];autosize=1;strokeColor=none;fillColor=none;fontFamily=Comic Sans MS;fontStyle=1;fontColor=#FF0000;" parent="1" vertex="1">
          <mxGeometry x="-15" y="550" width="100" height="20" as="geometry" />
        </mxCell>
        <mxCell id="US4r3jJXT_8FxYi47NpS-32" value="No" style="text;html=1;align=center;verticalAlign=middle;resizable=0;points=[];autosize=1;strokeColor=none;fillColor=none;fontFamily=Comic Sans MS;fontStyle=1;fontColor=#FF0000;" parent="1" vertex="1">
          <mxGeometry x="420" y="423" width="30" height="20" as="geometry" />
        </mxCell>
        <mxCell id="US4r3jJXT_8FxYi47NpS-33" value="Yes" style="text;html=1;align=center;verticalAlign=middle;resizable=0;points=[];autosize=1;strokeColor=none;fillColor=none;fontFamily=Comic Sans MS;fontStyle=1;fontColor=#FF0000;" parent="1" vertex="1">
          <mxGeometry x="570" y="420" width="40" height="20" as="geometry" />
        </mxCell>
        <mxCell id="US4r3jJXT_8FxYi47NpS-34" value="No" style="text;html=1;align=center;verticalAlign=middle;resizable=0;points=[];autosize=1;strokeColor=none;fillColor=none;fontFamily=Comic Sans MS;fontStyle=1;fontColor=#FF0000;" parent="1" vertex="1">
          <mxGeometry x="225" y="240" width="30" height="20" as="geometry" />
        </mxCell>
        <mxCell id="US4r3jJXT_8FxYi47NpS-35" value="Yes" style="text;html=1;align=center;verticalAlign=middle;resizable=0;points=[];autosize=1;strokeColor=none;fillColor=none;fontFamily=Comic Sans MS;fontStyle=1;fontColor=#FF0000;" parent="1" vertex="1">
          <mxGeometry x="375" y="240" width="40" height="20" as="geometry" />
        </mxCell>
        <mxCell id="US4r3jJXT_8FxYi47NpS-36" style="edgeStyle=orthogonalEdgeStyle;rounded=1;orthogonalLoop=1;jettySize=auto;html=1;exitX=0;exitY=0.5;exitDx=0;exitDy=0;fontColor=#000000;fontFamily=Helvetica;dashed=1;strokeColor=#696773;strokeWidth=2;entryX=0.5;entryY=0;entryDx=0;entryDy=0;" parent="1" source="US4r3jJXT_8FxYi47NpS-25" target="US4r3jJXT_8FxYi47NpS-20" edge="1">
          <mxGeometry relative="1" as="geometry">
            <mxPoint x="80" y="455" as="sourcePoint" />
            <mxPoint x="110" y="555" as="targetPoint" />
          </mxGeometry>
        </mxCell>
        <mxCell id="US4r3jJXT_8FxYi47NpS-37" style="edgeStyle=orthogonalEdgeStyle;rounded=1;orthogonalLoop=1;jettySize=auto;html=1;fontColor=#000000;fontFamily=Helvetica;dashed=1;strokeColor=#696773;strokeWidth=2;entryX=0.25;entryY=0;entryDx=0;entryDy=0;exitX=0;exitY=0.5;exitDx=0;exitDy=0;" parent="1" source="US4r3jJXT_8FxYi47NpS-14" target="US4r3jJXT_8FxYi47NpS-47" edge="1">
          <mxGeometry relative="1" as="geometry">
            <mxPoint x="226" y="540" as="targetPoint" />
            <mxPoint x="160" y="445" as="sourcePoint" />
            <Array as="points">
              <mxPoint x="230" y="355" />
              <mxPoint x="230" y="450" />
              <mxPoint x="278" y="450" />
            </Array>
          </mxGeometry>
        </mxCell>
        <mxCell id="US4r3jJXT_8FxYi47NpS-38" style="edgeStyle=orthogonalEdgeStyle;rounded=1;orthogonalLoop=1;jettySize=auto;html=1;fontColor=#000000;fontFamily=Helvetica;dashed=1;strokeColor=#696773;strokeWidth=2;exitX=1;exitY=0.5;exitDx=0;exitDy=0;entryX=0.75;entryY=0;entryDx=0;entryDy=0;" parent="1" source="US4r3jJXT_8FxYi47NpS-14" target="US4r3jJXT_8FxYi47NpS-47" edge="1">
          <mxGeometry relative="1" as="geometry">
            <mxPoint x="294" y="920" as="targetPoint" />
            <mxPoint x="280" y="365" as="sourcePoint" />
            <Array as="points">
              <mxPoint x="380" y="355" />
              <mxPoint x="380" y="450" />
              <mxPoint x="323" y="450" />
            </Array>
          </mxGeometry>
        </mxCell>
        <mxCell id="US4r3jJXT_8FxYi47NpS-39" style="edgeStyle=orthogonalEdgeStyle;rounded=1;orthogonalLoop=1;jettySize=auto;html=1;fontFamily=Helvetica;strokeColor=#696773;strokeWidth=2;exitX=1;exitY=0.5;exitDx=0;exitDy=0;dashed=1;" parent="1" source="US4r3jJXT_8FxYi47NpS-3" edge="1">
          <mxGeometry relative="1" as="geometry">
            <mxPoint x="540" y="445" as="sourcePoint" />
            <mxPoint x="470" y="570" as="targetPoint" />
            <Array as="points">
              <mxPoint x="650" y="445" />
              <mxPoint x="650" y="520" />
              <mxPoint x="470" y="520" />
            </Array>
          </mxGeometry>
        </mxCell>
        <mxCell id="US4r3jJXT_8FxYi47NpS-40" value="" style="edgeStyle=orthogonalEdgeStyle;rounded=1;orthogonalLoop=1;jettySize=auto;html=1;fontFamily=Helvetica;fontColor=#000000;exitX=1;exitY=0.5;exitDx=0;exitDy=0;entryX=0.5;entryY=0;entryDx=0;entryDy=0;dashed=1;strokeColor=#696773;strokeWidth=2;" parent="1" source="US4r3jJXT_8FxYi47NpS-42" target="US4r3jJXT_8FxYi47NpS-5" edge="1">
          <mxGeometry relative="1" as="geometry">
            <mxPoint x="460" y="800" as="targetPoint" />
            <Array as="points">
              <mxPoint x="510" y="585" />
              <mxPoint x="510" y="800" />
              <mxPoint x="435" y="800" />
            </Array>
          </mxGeometry>
        </mxCell>
        <mxCell id="US4r3jJXT_8FxYi47NpS-41" style="edgeStyle=orthogonalEdgeStyle;rounded=1;orthogonalLoop=1;jettySize=auto;html=1;entryX=0.5;entryY=0;entryDx=0;entryDy=0;fontFamily=Helvetica;fontColor=#000000;exitX=0;exitY=0.5;exitDx=0;exitDy=0;dashed=1;strokeColor=#696773;strokeWidth=2;" parent="1" source="US4r3jJXT_8FxYi47NpS-42" target="US4r3jJXT_8FxYi47NpS-44" edge="1">
          <mxGeometry relative="1" as="geometry" />
        </mxCell>
        <mxCell id="US4r3jJXT_8FxYi47NpS-42" value="cache inclusiveness" style="rounded=1;whiteSpace=wrap;html=1;strokeColor=none;shadow=1;glass=0;comic=0;gradientColor=none;fontFamily=Comic Sans MS;fontStyle=1;fillColor=#C3ABD0;" parent="1" vertex="1">
          <mxGeometry x="400" y="570" width="90" height="30" as="geometry" />
        </mxCell>
        <mxCell id="US4r3jJXT_8FxYi47NpS-43" style="edgeStyle=orthogonalEdgeStyle;rounded=1;orthogonalLoop=1;jettySize=auto;html=1;exitX=1;exitY=0.5;exitDx=0;exitDy=0;fontFamily=Helvetica;fontColor=#000000;entryX=0.5;entryY=0;entryDx=0;entryDy=0;dashed=1;strokeColor=#696773;strokeWidth=2;" parent="1" source="US4r3jJXT_8FxYi47NpS-44" target="US4r3jJXT_8FxYi47NpS-5" edge="1">
          <mxGeometry relative="1" as="geometry">
            <mxPoint x="460" y="800" as="targetPoint" />
            <Array as="points">
              <mxPoint x="510" y="725" />
              <mxPoint x="510" y="800" />
              <mxPoint x="435" y="800" />
            </Array>
          </mxGeometry>
        </mxCell>
        <mxCell id="US4r3jJXT_8FxYi47NpS-44" value="directory inclusiveness" style="rounded=1;whiteSpace=wrap;html=1;strokeColor=none;shadow=1;glass=0;comic=0;gradientColor=none;fontFamily=Comic Sans MS;fontStyle=1;fillColor=#D5E8D4;" parent="1" vertex="1">
          <mxGeometry x="375" y="717" width="90" height="30" as="geometry" />
        </mxCell>
        <mxCell id="US4r3jJXT_8FxYi47NpS-45" value="" style="edgeStyle=orthogonalEdgeStyle;rounded=1;orthogonalLoop=1;jettySize=auto;html=1;fontFamily=Helvetica;fontColor=#000000;exitX=1;exitY=0.5;exitDx=0;exitDy=0;dashed=1;strokeColor=#696773;strokeWidth=2;" parent="1" source="US4r3jJXT_8FxYi47NpS-47" edge="1">
          <mxGeometry relative="1" as="geometry">
            <mxPoint x="280" y="870" as="targetPoint" />
            <Array as="points">
              <mxPoint x="365" y="585" />
              <mxPoint x="365" y="730" />
              <mxPoint x="280" y="730" />
            </Array>
          </mxGeometry>
        </mxCell>
        <mxCell id="US4r3jJXT_8FxYi47NpS-46" style="edgeStyle=orthogonalEdgeStyle;rounded=1;orthogonalLoop=1;jettySize=auto;html=1;entryX=0.5;entryY=0;entryDx=0;entryDy=0;fontFamily=Helvetica;fontColor=#000000;exitX=0;exitY=0.5;exitDx=0;exitDy=0;dashed=1;strokeColor=#696773;strokeWidth=2;" parent="1" source="US4r3jJXT_8FxYi47NpS-47" target="US4r3jJXT_8FxYi47NpS-49" edge="1">
          <mxGeometry relative="1" as="geometry">
            <mxPoint x="220" y="660" as="targetPoint" />
          </mxGeometry>
        </mxCell>
        <mxCell id="US4r3jJXT_8FxYi47NpS-47" value="cache inclusiveness" style="rounded=1;whiteSpace=wrap;html=1;strokeColor=none;shadow=1;glass=0;comic=0;gradientColor=none;fontFamily=Comic Sans MS;fontStyle=1;fillColor=#C3ABD0;" parent="1" vertex="1">
          <mxGeometry x="255" y="570" width="90" height="30" as="geometry" />
        </mxCell>
        <mxCell id="US4r3jJXT_8FxYi47NpS-48" style="edgeStyle=orthogonalEdgeStyle;rounded=1;orthogonalLoop=1;jettySize=auto;html=1;exitX=1;exitY=0.5;exitDx=0;exitDy=0;fontFamily=Helvetica;fontColor=#000000;entryX=0.5;entryY=0;entryDx=0;entryDy=0;dashed=1;strokeColor=#696773;strokeWidth=2;" parent="1" source="US4r3jJXT_8FxYi47NpS-49" target="US4r3jJXT_8FxYi47NpS-6" edge="1">
          <mxGeometry relative="1" as="geometry">
            <mxPoint x="265" y="675" as="sourcePoint" />
            <mxPoint x="280" y="800" as="targetPoint" />
          </mxGeometry>
        </mxCell>
        <mxCell id="US4r3jJXT_8FxYi47NpS-49" value="directory inclusiveness" style="rounded=1;whiteSpace=wrap;html=1;strokeColor=none;shadow=1;glass=0;comic=0;gradientColor=none;fontFamily=Comic Sans MS;fontStyle=1;fillColor=#D5E8D4;" parent="1" vertex="1">
          <mxGeometry x="165" y="717" width="90" height="30" as="geometry" />
        </mxCell>
        <mxCell id="US4r3jJXT_8FxYi47NpS-50" value="Yes" style="text;html=1;align=center;verticalAlign=middle;resizable=0;points=[];autosize=1;strokeColor=none;fillColor=none;fontFamily=Comic Sans MS;fontStyle=1;fontColor=#FF0000;" parent="1" vertex="1">
          <mxGeometry x="486" y="559" width="40" height="20" as="geometry" />
        </mxCell>
        <mxCell id="US4r3jJXT_8FxYi47NpS-51" value="Yes" style="text;html=1;align=center;verticalAlign=middle;resizable=0;points=[];autosize=1;strokeColor=none;fillColor=none;fontFamily=Comic Sans MS;fontStyle=1;fontColor=#FF0000;" parent="1" vertex="1">
          <mxGeometry x="335" y="559" width="40" height="20" as="geometry" />
        </mxCell>
        <mxCell id="US4r3jJXT_8FxYi47NpS-52" value="No" style="text;html=1;align=center;verticalAlign=middle;resizable=0;points=[];autosize=1;strokeColor=none;fillColor=none;fontFamily=Comic Sans MS;fontStyle=1;fontColor=#FF0000;" parent="1" vertex="1">
          <mxGeometry x="375" y="559" width="30" height="20" as="geometry" />
        </mxCell>
        <mxCell id="US4r3jJXT_8FxYi47NpS-53" value="No" style="text;html=1;align=center;verticalAlign=middle;resizable=0;points=[];autosize=1;strokeColor=none;fillColor=none;fontFamily=Comic Sans MS;fontStyle=1;fontColor=#FF0000;" parent="1" vertex="1">
          <mxGeometry x="220" y="559" width="30" height="20" as="geometry" />
        </mxCell>
        <mxCell id="US4r3jJXT_8FxYi47NpS-54" value="No" style="text;html=1;align=center;verticalAlign=middle;resizable=0;points=[];autosize=1;strokeColor=none;fillColor=none;fontFamily=Comic Sans MS;fontStyle=1;fontColor=#FF0000;" parent="1" vertex="1">
          <mxGeometry x="240" y="330" width="30" height="20" as="geometry" />
        </mxCell>
        <mxCell id="US4r3jJXT_8FxYi47NpS-55" value="Yes" style="text;html=1;align=center;verticalAlign=middle;resizable=0;points=[];autosize=1;strokeColor=none;fillColor=none;fontFamily=Comic Sans MS;fontStyle=1;fontColor=#FF0000;" parent="1" vertex="1">
          <mxGeometry x="360" y="330" width="40" height="20" as="geometry" />
        </mxCell>
        <mxCell id="US4r3jJXT_8FxYi47NpS-56" value="Yes" style="text;html=1;align=center;verticalAlign=middle;resizable=0;points=[];autosize=1;strokeColor=none;fillColor=none;fontFamily=Comic Sans MS;fontStyle=1;fontColor=#FF0000;" parent="1" vertex="1">
          <mxGeometry x="250" y="700" width="40" height="20" as="geometry" />
        </mxCell>
        <mxCell id="US4r3jJXT_8FxYi47NpS-57" value="Yes" style="text;html=1;align=center;verticalAlign=middle;resizable=0;points=[];autosize=1;strokeColor=none;fillColor=none;fontFamily=Comic Sans MS;fontStyle=1;fontColor=#FF0000;" parent="1" vertex="1">
          <mxGeometry x="460" y="700" width="40" height="20" as="geometry" />
        </mxCell>
        <mxCell id="US4r3jJXT_8FxYi47NpS-58" value="MESI" style="text;html=1;align=center;verticalAlign=middle;resizable=0;points=[];autosize=1;strokeColor=none;fillColor=none;fontFamily=Comic Sans MS;fontStyle=1;fontColor=#FF0000;" parent="1" vertex="1">
          <mxGeometry x="635" y="330" width="50" height="20" as="geometry" />
        </mxCell>
        <mxCell id="US4r3jJXT_8FxYi47NpS-59" value="LRU, Tree-LRU, &lt;br&gt;Bit-PLRU(in L1); &lt;br&gt;Quad-Age LRU(in LLC)" style="text;html=1;align=center;verticalAlign=middle;resizable=0;points=[];autosize=1;strokeColor=none;fillColor=none;fontFamily=Comic Sans MS;fontStyle=1;fontColor=#FF0000;" parent="1" vertex="1">
          <mxGeometry x="40" y="600" width="150" height="50" as="geometry" />
        </mxCell>
      </root>
    </mxGraphModel>
  </diagram>
  <diagram id="UQVgAdIyR9uL4tG3eiFA" name="Page-2">
    <mxGraphModel dx="1488" dy="870" grid="1" gridSize="10" guides="1" tooltips="1" connect="1" arrows="1" fold="1" page="1" pageScale="1" pageWidth="850" pageHeight="1100" math="0" shadow="0">
      <root>
        <mxCell id="0" />
        <mxCell id="1" parent="0" />
        <mxCell id="WFYTTnCxoVAe2WFqchAm-2" style="edgeStyle=orthogonalEdgeStyle;rounded=0;orthogonalLoop=1;jettySize=auto;html=1;endArrow=none;endFill=0;startArrow=classic;startFill=1;fontFamily=Times New Roman;fontSize=15;" edge="1" parent="1" source="WFYTTnCxoVAe2WFqchAm-1" target="WFYTTnCxoVAe2WFqchAm-6">
          <mxGeometry relative="1" as="geometry">
            <mxPoint x="160" y="470" as="targetPoint" />
          </mxGeometry>
        </mxCell>
        <mxCell id="WFYTTnCxoVAe2WFqchAm-1" value="MUX" style="shape=trapezoid;perimeter=trapezoidPerimeter;whiteSpace=wrap;html=1;fixedSize=1;rotation=90;fontFamily=Times New Roman;fontSize=15;" vertex="1" parent="1">
          <mxGeometry x="100" y="340" width="120" height="60" as="geometry" />
        </mxCell>
        <mxCell id="WFYTTnCxoVAe2WFqchAm-3" style="edgeStyle=orthogonalEdgeStyle;rounded=0;orthogonalLoop=1;jettySize=auto;html=1;endArrow=none;endFill=0;startArrow=classic;startFill=1;exitX=0.25;exitY=1;exitDx=0;exitDy=0;fontFamily=Times New Roman;fontSize=15;" edge="1" parent="1" source="WFYTTnCxoVAe2WFqchAm-1">
          <mxGeometry relative="1" as="geometry">
            <mxPoint x="60" y="340" as="targetPoint" />
            <mxPoint x="60" y="330" as="sourcePoint" />
          </mxGeometry>
        </mxCell>
        <mxCell id="WFYTTnCxoVAe2WFqchAm-4" style="edgeStyle=orthogonalEdgeStyle;rounded=0;orthogonalLoop=1;jettySize=auto;html=1;endArrow=none;endFill=0;startArrow=classic;startFill=1;exitX=0.75;exitY=1;exitDx=0;exitDy=0;fontFamily=Times New Roman;fontSize=15;" edge="1" parent="1" source="WFYTTnCxoVAe2WFqchAm-1">
          <mxGeometry relative="1" as="geometry">
            <mxPoint x="60" y="400" as="targetPoint" />
            <mxPoint x="140" y="350" as="sourcePoint" />
          </mxGeometry>
        </mxCell>
        <mxCell id="WFYTTnCxoVAe2WFqchAm-5" style="edgeStyle=orthogonalEdgeStyle;rounded=0;orthogonalLoop=1;jettySize=auto;html=1;endArrow=none;endFill=0;startArrow=classic;startFill=1;entryX=0.5;entryY=0;entryDx=0;entryDy=0;fontFamily=Times New Roman;fontSize=15;" edge="1" parent="1" target="WFYTTnCxoVAe2WFqchAm-1">
          <mxGeometry relative="1" as="geometry">
            <mxPoint x="70" y="410" as="targetPoint" />
            <mxPoint x="250" y="370" as="sourcePoint" />
          </mxGeometry>
        </mxCell>
        <mxCell id="WFYTTnCxoVAe2WFqchAm-6" value="S0" style="text;html=1;align=center;verticalAlign=middle;resizable=0;points=[];autosize=1;strokeColor=none;fillColor=none;fontFamily=Times New Roman;fontSize=15;" vertex="1" parent="1">
          <mxGeometry x="140" y="450" width="40" height="30" as="geometry" />
        </mxCell>
        <mxCell id="WFYTTnCxoVAe2WFqchAm-7" value="in0" style="text;html=1;align=center;verticalAlign=middle;resizable=0;points=[];autosize=1;strokeColor=none;fillColor=none;fontFamily=Times New Roman;fontSize=15;" vertex="1" parent="1">
          <mxGeometry x="20" y="325" width="40" height="30" as="geometry" />
        </mxCell>
        <mxCell id="WFYTTnCxoVAe2WFqchAm-9" value="in1" style="text;html=1;align=center;verticalAlign=middle;resizable=0;points=[];autosize=1;strokeColor=none;fillColor=none;fontFamily=Times New Roman;fontSize=15;" vertex="1" parent="1">
          <mxGeometry x="20" y="385" width="40" height="30" as="geometry" />
        </mxCell>
        <mxCell id="WFYTTnCxoVAe2WFqchAm-10" value="out" style="text;html=1;align=center;verticalAlign=middle;resizable=0;points=[];autosize=1;strokeColor=none;fillColor=none;" vertex="1" parent="1">
          <mxGeometry x="1030" y="940" width="40" height="30" as="geometry" />
        </mxCell>
        <mxCell id="WFYTTnCxoVAe2WFqchAm-12" value="" style="shape=or;whiteSpace=wrap;html=1;fontFamily=Times New Roman;fontSize=15;" vertex="1" parent="1">
          <mxGeometry x="640" y="315" width="40" height="40" as="geometry" />
        </mxCell>
        <mxCell id="WFYTTnCxoVAe2WFqchAm-36" style="edgeStyle=orthogonalEdgeStyle;rounded=0;orthogonalLoop=1;jettySize=auto;html=1;" edge="1" parent="1" source="WFYTTnCxoVAe2WFqchAm-13">
          <mxGeometry relative="1" as="geometry">
            <mxPoint x="870" y="372.5" as="targetPoint" />
          </mxGeometry>
        </mxCell>
        <mxCell id="WFYTTnCxoVAe2WFqchAm-13" value="" style="shape=xor;whiteSpace=wrap;html=1;fontFamily=Times New Roman;fontSize=15;" vertex="1" parent="1">
          <mxGeometry x="760" y="350" width="40" height="45" as="geometry" />
        </mxCell>
        <mxCell id="WFYTTnCxoVAe2WFqchAm-15" value="" style="triangle;whiteSpace=wrap;html=1;fontFamily=Times New Roman;fontSize=15;" vertex="1" parent="1">
          <mxGeometry x="564" y="330.5" width="25" height="29" as="geometry" />
        </mxCell>
        <mxCell id="WFYTTnCxoVAe2WFqchAm-18" value="" style="ellipse;whiteSpace=wrap;html=1;aspect=fixed;fontFamily=Times New Roman;fontSize=15;" vertex="1" parent="1">
          <mxGeometry x="589" y="340" width="10" height="10" as="geometry" />
        </mxCell>
        <mxCell id="WFYTTnCxoVAe2WFqchAm-20" style="edgeStyle=orthogonalEdgeStyle;rounded=0;orthogonalLoop=1;jettySize=auto;html=1;entryX=0.175;entryY=0.25;entryDx=0;entryDy=0;entryPerimeter=0;fontFamily=Times New Roman;fontSize=15;" edge="1" parent="1" source="WFYTTnCxoVAe2WFqchAm-12" target="WFYTTnCxoVAe2WFqchAm-13">
          <mxGeometry relative="1" as="geometry" />
        </mxCell>
        <mxCell id="WFYTTnCxoVAe2WFqchAm-21" value="" style="shape=or;whiteSpace=wrap;html=1;fontFamily=Times New Roman;fontSize=15;" vertex="1" parent="1">
          <mxGeometry x="640" y="390" width="40" height="40" as="geometry" />
        </mxCell>
        <mxCell id="WFYTTnCxoVAe2WFqchAm-23" style="edgeStyle=orthogonalEdgeStyle;rounded=0;orthogonalLoop=1;jettySize=auto;html=1;entryX=0.175;entryY=0.75;entryDx=0;entryDy=0;entryPerimeter=0;fontFamily=Times New Roman;fontSize=15;" edge="1" parent="1" source="WFYTTnCxoVAe2WFqchAm-21" target="WFYTTnCxoVAe2WFqchAm-13">
          <mxGeometry relative="1" as="geometry" />
        </mxCell>
        <mxCell id="WFYTTnCxoVAe2WFqchAm-25" style="edgeStyle=orthogonalEdgeStyle;rounded=0;orthogonalLoop=1;jettySize=auto;html=1;fontFamily=Times New Roman;fontSize=15;" edge="1" parent="1" source="WFYTTnCxoVAe2WFqchAm-18">
          <mxGeometry relative="1" as="geometry">
            <mxPoint x="640" y="345" as="targetPoint" />
          </mxGeometry>
        </mxCell>
        <mxCell id="WFYTTnCxoVAe2WFqchAm-26" value="in0" style="text;html=1;align=center;verticalAlign=middle;resizable=0;points=[];autosize=1;strokeColor=none;fillColor=none;fontFamily=Times New Roman;fontSize=15;" vertex="1" parent="1">
          <mxGeometry x="460" y="310" width="40" height="30" as="geometry" />
        </mxCell>
        <mxCell id="WFYTTnCxoVAe2WFqchAm-27" style="edgeStyle=orthogonalEdgeStyle;rounded=0;orthogonalLoop=1;jettySize=auto;html=1;entryX=0;entryY=0.25;entryDx=0;entryDy=0;entryPerimeter=0;fontFamily=Times New Roman;fontSize=15;" edge="1" parent="1" source="WFYTTnCxoVAe2WFqchAm-26" target="WFYTTnCxoVAe2WFqchAm-12">
          <mxGeometry relative="1" as="geometry" />
        </mxCell>
        <mxCell id="WFYTTnCxoVAe2WFqchAm-29" style="edgeStyle=orthogonalEdgeStyle;rounded=0;orthogonalLoop=1;jettySize=auto;html=1;entryX=0;entryY=0.5;entryDx=0;entryDy=0;fontFamily=Times New Roman;fontSize=15;" edge="1" parent="1" source="WFYTTnCxoVAe2WFqchAm-28" target="WFYTTnCxoVAe2WFqchAm-15">
          <mxGeometry relative="1" as="geometry" />
        </mxCell>
        <mxCell id="WFYTTnCxoVAe2WFqchAm-28" value="S0" style="text;html=1;align=center;verticalAlign=middle;resizable=0;points=[];autosize=1;strokeColor=none;fillColor=none;fontFamily=Times New Roman;fontSize=15;" vertex="1" parent="1">
          <mxGeometry x="524" y="460" width="40" height="30" as="geometry" />
        </mxCell>
        <mxCell id="WFYTTnCxoVAe2WFqchAm-30" style="edgeStyle=orthogonalEdgeStyle;rounded=0;orthogonalLoop=1;jettySize=auto;html=1;entryX=0;entryY=0.75;entryDx=0;entryDy=0;entryPerimeter=0;fontFamily=Times New Roman;fontSize=15;" edge="1" parent="1" source="WFYTTnCxoVAe2WFqchAm-33" target="WFYTTnCxoVAe2WFqchAm-21">
          <mxGeometry relative="1" as="geometry">
            <mxPoint x="660" y="420" as="targetPoint" />
            <Array as="points" />
          </mxGeometry>
        </mxCell>
        <mxCell id="WFYTTnCxoVAe2WFqchAm-31" value="in1" style="text;html=1;align=center;verticalAlign=middle;resizable=0;points=[];autosize=1;strokeColor=none;fillColor=none;fontFamily=Times New Roman;fontSize=15;" vertex="1" parent="1">
          <mxGeometry x="460" y="385" width="40" height="30" as="geometry" />
        </mxCell>
        <mxCell id="WFYTTnCxoVAe2WFqchAm-32" style="edgeStyle=orthogonalEdgeStyle;rounded=0;orthogonalLoop=1;jettySize=auto;html=1;entryX=0;entryY=0.25;entryDx=0;entryDy=0;entryPerimeter=0;fontFamily=Times New Roman;fontSize=15;" edge="1" parent="1" source="WFYTTnCxoVAe2WFqchAm-31" target="WFYTTnCxoVAe2WFqchAm-21">
          <mxGeometry relative="1" as="geometry" />
        </mxCell>
        <mxCell id="WFYTTnCxoVAe2WFqchAm-33" value="" style="ellipse;whiteSpace=wrap;html=1;aspect=fixed;fillColor=#33001A;fontFamily=Times New Roman;fontSize=15;" vertex="1" parent="1">
          <mxGeometry x="541" y="417" width="6" height="6" as="geometry" />
        </mxCell>
      </root>
    </mxGraphModel>
  </diagram>
</mxfile>
